<svg xmlns="http://www.w3.org/2000/svg" width="128" height="72" viewBox="0 0 32 18" role="img" aria-label="spidey coding"><g shape-rendering="crispEdges"><rect x="12" y="3" width="8" height="1" fill="#FF1F35"></rect><rect x="2" y="4" width="7" height="1" fill="#0B0D10"></rect><rect x="10" y="4" width="12" height="1" fill="#FF1F35"></rect><rect x="23" y="4" width="2" height="1" fill="#FF1F35"></rect><rect x="2" y="5" width="1" height="1" fill="#0B0D10"></rect><rect x="3" y="5" width="5" height="1" fill="#2A2D34"></rect><rect x="8" y="5" width="1" height="1" fill="#0B0D10"></rect><rect x="9" y="5" width="16" height="1" fill="#FF1F35"></rect><rect x="2" y="6" width="1" height="1" fill="#0B0D10"></rect><rect x="3" y="6" width="1" height="1" fill="#2A2D34"></rect><rect x="4" y="6" width="2" height="1" fill="#F5F2E8"></rect><rect x="6" y="6" width="2" height="1" fill="#2A2D34"></rect><rect x="8" y="6" width="1" height="1" fill="#0B0D10"></rect><rect x="9" y="6" width="14" height="1" fill="#FF1F35"></rect><rect x="25" y="6" width="2" height="1" fill="#A81222"></rect><rect x="2" y="7" width="1" height="1" fill="#0B0D10"></rect><rect x="3" y="7" width="5" height="1" fill="#2A2D34"></rect><rect x="8" y="7" width="1" height="1" fill="#0B0D10"></rect><rect x="9" y="7" width="2" height="1" fill="#FF1F35"></rect><rect x="11" y="7" width="3" height="1" fill="#0B0D10"></rect><rect x="14" y="7" width="4" height="1" fill="#FF1F35"></rect><rect x="18" y="7" width="3" height="1" fill="#0B0D10"></rect><rect x="21" y="7" width="2" height="1" fill="#FF1F35"></rect><rect x="25" y="7" width="2" height="1" fill="#A81222"></rect><rect x="2" y="8" width="1" height="1" fill="#0B0D10"></rect><rect x="3" y="8" width="1" height="1" fill="#2A2D34"></rect><rect x="4" y="8" width="1" height="1" fill="#F5F2E8"></rect><rect x="5" y="8" width="3" height="1" fill="#2A2D34"></rect><rect x="8" y="8" width="1" height="1" fill="#0B0D10"></rect><rect x="9" y="8" width="2" height="1" fill="#FF1F35"></rect><rect x="11" y="8" width="3" height="1" fill="#0B0D10"></rect><rect x="14" y="8" width="4" height="1" fill="#FF1F35"></rect><rect x="18" y="8" width="3" height="1" fill="#0B0D10"></rect><rect x="21" y="8" width="5" height="1" fill="#FF1F35"></rect><rect x="2" y="9" width="1" height="1" fill="#0B0D10"></rect><rect x="3" y="9" width="5" height="1" fill="#2A2D34"></rect><rect x="8" y="9" width="1" height="1" fill="#0B0D10"></rect><rect x="9" y="9" width="2" height="1" fill="#FF1F35"></rect><rect x="11" y="9" width="3" height="1" fill="#0B0D10"></rect><rect x="14" y="9" width="4" height="1" fill="#FF1F35"></rect><rect x="18" y="9" width="3" height="1" fill="#0B0D10"></rect><rect x="21" y="9" width="5" height="1" fill="#FF1F35"></rect><rect x="2" y="10" width="1" height="1" fill="#0B0D10"></rect><rect x="3" y="10" width="1" height="1" fill="#2A2D34"></rect><rect x="4" y="10" width="1" height="1" fill="#F5F2E8"></rect><rect x="5" y="10" width="1" height="1" fill="#2A2D34"></rect><rect x="6" y="10" width="1" height="1" fill="#F5F2E8"></rect><rect x="7" y="10" width="1" height="1" fill="#2A2D34"></rect><rect x="8" y="10" width="1" height="1" fill="#0B0D10"></rect><rect x="9" y="10" width="2" height="1" fill="#FF1F35"></rect><rect x="11" y="10" width="1" height="1" fill="#F5F2E8"></rect><rect x="12" y="10" width="2" height="1" fill="#0B0D10"></rect><rect x="14" y="10" width="4" height="1" fill="#FF1F35"></rect><rect x="18" y="10" width="1" height="1" fill="#F5F2E8"></rect><rect x="19" y="10" width="2" height="1" fill="#0B0D10"></rect><rect x="21" y="10" width="2" height="1" fill="#FF1F35"></rect><rect x="26" y="10" width="3" height="1" fill="#A81222"></rect><rect x="2" y="11" width="7" height="1" fill="#0B0D10"></rect><rect x="9" y="11" width="13" height="1" fill="#FF1F35"></rect><rect x="22" y="11" width="1" height="1" fill="#A81222"></rect><rect x="23" y="11" width="2" height="1" fill="#FF1F35"></rect><rect x="26" y="11" width="3" height="1" fill="#A81222"></rect><rect x="0" y="12" width="10" height="1" fill="#2A2D34"></rect><rect x="10" y="12" width="11" height="1" fill="#FF1F35"></rect><rect x="21" y="12" width="1" height="1" fill="#A81222"></rect><rect x="23" y="12" width="2" height="1" fill="#FF1F35"></rect><rect x="0" y="13" width="10" height="1" fill="#2A2D34"></rect><rect x="11" y="13" width="10" height="1" fill="#A81222"></rect><rect x="25" y="13" width="2" height="1" fill="#A81222"></rect><rect x="0" y="14" width="10" height="1" fill="#0B0D10"></rect><rect x="13" y="14" width="6" height="1" fill="#A81222"></rect><rect x="25" y="14" width="2" height="1" fill="#A81222"></rect></g></svg>