<svg xmlns="http://www.w3.org/2000/svg" width="128" height="72" viewBox="0 0 32 18" role="img" aria-label="spidey web-shoot"><g shape-rendering="crispEdges"><rect x="12" y="3" width="8" height="1" fill="#FF1F35"></rect><rect x="7" y="4" width="2" height="1" fill="#FF1F35"></rect><rect x="10" y="4" width="12" height="1" fill="#FF1F35"></rect><rect x="23" y="4" width="2" height="1" fill="#FF1F35"></rect><rect x="7" y="5" width="18" height="1" fill="#FF1F35"></rect><rect x="30" y="5" width="1" height="1" fill="#F5F2E8"></rect><rect x="5" y="6" width="2" height="1" fill="#A81222"></rect><rect x="9" y="6" width="14" height="1" fill="#FF1F35"></rect><rect x="25" y="6" width="2" height="1" fill="#A81222"></rect><rect x="29" y="6" width="1" height="1" fill="#F5F2E8"></rect><rect x="5" y="7" width="2" height="1" fill="#A81222"></rect><rect x="9" y="7" width="14" height="1" fill="#FF1F35"></rect><rect x="25" y="7" width="2" height="1" fill="#A81222"></rect><rect x="28" y="7" width="1" height="1" fill="#F5F2E8"></rect><rect x="6" y="8" width="5" height="1" fill="#FF1F35"></rect><rect x="11" y="8" width="2" height="1" fill="#0B0D10"></rect><rect x="13" y="8" width="1" height="1" fill="#F5F2E8"></rect><rect x="14" y="8" width="4" height="1" fill="#FF1F35"></rect><rect x="18" y="8" width="2" height="1" fill="#0B0D10"></rect><rect x="20" y="8" width="1" height="1" fill="#F5F2E8"></rect><rect x="21" y="8" width="5" height="1" fill="#FF1F35"></rect><rect x="6" y="9" width="5" height="1" fill="#FF1F35"></rect><rect x="11" y="9" width="3" height="1" fill="#0B0D10"></rect><rect x="14" y="9" width="4" height="1" fill="#FF1F35"></rect><rect x="18" y="9" width="3" height="1" fill="#0B0D10"></rect><rect x="21" y="9" width="2" height="1" fill="#FF1F35"></rect><rect x="23" y="9" width="6" height="1" fill="#F5F2E8"></rect><rect x="30" y="9" width="2" height="1" fill="#F5F2E8"></rect><rect x="3" y="10" width="3" height="1" fill="#A81222"></rect><rect x="9" y="10" width="2" height="1" fill="#FF1F35"></rect><rect x="11" y="10" width="3" height="1" fill="#0B0D10"></rect><rect x="14" y="10" width="4" height="1" fill="#FF1F35"></rect><rect x="18" y="10" width="3" height="1" fill="#0B0D10"></rect><rect x="21" y="10" width="2" height="1" fill="#FF1F35"></rect><rect x="26" y="10" width="3" height="1" fill="#A81222"></rect><rect x="3" y="11" width="3" height="1" fill="#A81222"></rect><rect x="7" y="11" width="15" height="1" fill="#FF1F35"></rect><rect x="22" y="11" width="1" height="1" fill="#A81222"></rect><rect x="23" y="11" width="2" height="1" fill="#FF1F35"></rect><rect x="26" y="11" width="2" height="1" fill="#A81222"></rect><rect x="28" y="11" width="1" height="1" fill="#F5F2E8"></rect><rect x="7" y="12" width="2" height="1" fill="#FF1F35"></rect><rect x="10" y="12" width="11" height="1" fill="#FF1F35"></rect><rect x="21" y="12" width="1" height="1" fill="#A81222"></rect><rect x="23" y="12" width="2" height="1" fill="#FF1F35"></rect><rect x="29" y="12" width="1" height="1" fill="#F5F2E8"></rect><rect x="5" y="13" width="2" height="1" fill="#A81222"></rect><rect x="11" y="13" width="10" height="1" fill="#A81222"></rect><rect x="25" y="13" width="2" height="1" fill="#A81222"></rect><rect x="30" y="13" width="1" height="1" fill="#F5F2E8"></rect><rect x="5" y="14" width="2" height="1" fill="#A81222"></rect><rect x="13" y="14" width="6" height="1" fill="#A81222"></rect><rect x="25" y="14" width="2" height="1" fill="#A81222"></rect></g></svg>